<?xml version="1.0" encoding="UTF-8" standalone="no"?>
<!DOCTYPE svg PUBLIC "-//W3C//DTD SVG 1.1//EN" "http://www.w3.org/Graphics/SVG/1.1/DTD/svg11.dtd">
<svg version="1.1" xmlns="http://www.w3.org/2000/svg" xmlns:xlink="http://www.w3.org/1999/xlink" preserveAspectRatio="xMidYMid meet" viewBox="0 0 1080 590" width="1080" height="590"><defs><path d="M67.5 694.92L1012.5 694.92L1012.5 1134.32L67.5 1134.32L67.5 694.92Z" id="ckaQMovNq"></path><path d="M696.42 1167.65L995 1167.65L995 1222.2L696.42 1222.2L696.42 1167.65Z" id="a3fWxsU2Cb"></path><path d="M135 1290L945 1290L945 1414.24L135 1414.24L135 1290Z" id="dcjk1ONji"></path><path d="M204.3 1585.83L893.7 1585.83L893.7 1664.62L204.3 1664.62L204.3 1585.83Z" id="d2F0P2Dq7w"></path><path d="M204.3 1697.96L893.7 1697.96L893.7 1834.32L204.3 1834.32L204.3 1697.96Z" id="b1E5y4H74"></path><path d="M1281.69 97.49C1281.69 267.95 1143.31 406.33 972.85 406.33C802.4 406.33 664.02 267.95 664.02 97.49C664.02 -72.96 802.4 -211.34 972.85 -211.34C1143.31 -211.34 1281.69 -72.96 1281.69 97.49Z" id="bN4eXvOzI"></path><linearGradient id="gradientbfCzbpv9p" gradientUnits="userSpaceOnUse" x1="877.5" y1="-90.13" x2="1136.18" y2="439.33"><stop style="stop-color: #0c6ff0;stop-opacity: 1" offset="0%"></stop><stop style="stop-color: #0ce7f0;stop-opacity: 1" offset="100%"></stop></linearGradient><path d="M793.56 101.41C793.56 366.74 578.14 582.16 312.81 582.16C47.48 582.16 -167.94 366.74 -167.94 101.41C-167.94 -163.93 47.48 -379.34 312.81 -379.34C578.14 -379.34 793.56 -163.93 793.56 101.41Z" id="a1dNzpub4C"></path><linearGradient id="gradientj2rcCCpCXN" gradientUnits="userSpaceOnUse" x1="494.5" y1="603.99" x2="216.05" y2="-30.31"><stop style="stop-color: #0ce7f0;stop-opacity: 1" offset="0%"></stop><stop style="stop-color: #0c6ff0;stop-opacity: 1" offset="100%"></stop></linearGradient><path d="M260.82 283.25L261.35 283.3L261.86 283.37L262.36 283.46L262.83 283.58L263.29 283.71L263.74 283.87L264.17 284.05L264.59 284.25L265.01 284.47L265.41 284.71L265.8 284.98L266.18 285.27L266.56 285.59L266.94 285.92L267.31 286.28L267.67 286.67L268.04 287.07L268.41 287.5L265.16 290.68L264.93 290.42L264.7 290.17L264.47 289.93L264.24 289.7L264.01 289.48L263.77 289.27L263.53 289.07L263.29 288.88L263.04 288.7L262.78 288.54L262.52 288.39L262.25 288.26L261.97 288.14L261.68 288.03L261.38 287.94L261.07 287.86L260.74 287.8L260.41 287.76L260.06 287.73L259.69 287.72L259 287.76L258.35 287.85L257.75 288.01L257.2 288.23L256.69 288.5L256.23 288.82L255.8 289.18L255.42 289.59L255.08 290.03L254.77 290.51L254.5 291.02L254.27 291.55L254.07 292.1L253.9 292.67L253.76 293.26L253.65 293.85L253.56 294.45L253.51 295.06L253.47 295.66L253.46 296.25L253.47 296.85L253.51 297.45L253.56 298.05L253.65 298.65L253.76 299.25L253.9 299.83L254.07 300.4L254.27 300.96L254.5 301.49L254.77 301.99L255.08 302.47L255.42 302.91L255.8 303.32L256.23 303.68L256.69 304L257.2 304.27L257.75 304.49L258.35 304.65L259 304.75L259.69 304.78L260.07 304.77L260.43 304.74L260.78 304.7L261.11 304.63L261.43 304.55L261.74 304.45L262.04 304.34L262.33 304.21L262.61 304.07L262.88 303.91L263.15 303.73L263.4 303.55L263.65 303.34L263.9 303.13L264.14 302.91L264.38 302.67L264.61 302.42L264.84 302.16L265.08 301.89L265.31 301.61L268.55 304.71L268.15 305.18L267.76 305.62L267.38 306.03L267.01 306.42L266.63 306.78L266.26 307.12L265.89 307.43L265.51 307.71L265.12 307.97L264.72 308.21L264.32 308.42L263.89 308.61L263.45 308.78L262.99 308.92L262.51 309.04L262.01 309.13L261.48 309.21L260.91 309.26L260.32 309.29L259.69 309.3L258.59 309.26L257.55 309.12L256.58 308.9L255.66 308.6L254.81 308.22L254.01 307.77L253.27 307.25L252.6 306.67L251.98 306.03L251.41 305.33L250.91 304.59L250.46 303.79L250.06 302.95L249.72 302.08L249.44 301.17L249.2 300.23L249.02 299.26L248.9 298.27L248.82 297.27L248.79 296.25L248.82 295.23L248.89 294.22L249.02 293.23L249.2 292.26L249.43 291.32L249.72 290.41L250.05 289.54L250.45 288.7L250.9 287.91L251.4 287.16L251.96 286.46L252.58 285.82L253.26 285.24L254 284.73L254.79 284.28L255.65 283.9L256.57 283.6L257.55 283.39L258.59 283.25L259.69 283.21L260.27 283.22L260.82 283.25ZM165.59 196.73L167.73 196.83L169.79 196.97L171.77 197.14L173.67 197.36L175.5 197.62L177.25 197.92L178.93 198.25L180.53 198.64L182.07 199.06L183.53 199.52L184.93 200.03L186.26 200.58L187.52 201.17L188.72 201.81L189.85 202.49L190.92 203.21L191.93 203.98L192.88 204.79L193.78 205.65L194.61 206.55L195.39 207.5L196.11 208.49L196.79 209.53L197.4 210.62L197.97 211.75L198.49 212.93L198.96 214.16L199.38 215.44L199.75 216.76L200.09 218.14L200.37 219.56L200.62 221.03L200.82 222.55L200.98 224.12L201.11 225.74L201.2 227.41L201.25 229.13L201.27 230.9L201.25 232.2L201.21 233.47L201.14 234.71L201.04 235.93L200.91 237.11L200.76 238.26L200.58 239.39L200.38 240.48L200.15 241.55L199.9 242.59L199.63 243.6L199.34 244.58L199.02 245.53L198.69 246.45L198.34 247.35L197.97 248.22L197.58 249.06L197.17 249.87L196.75 250.66L196.31 251.41L195.86 252.14L195.39 252.85L194.92 253.52L194.43 254.17L193.92 254.79L193.41 255.38L192.89 255.95L192.35 256.49L191.81 257.01L191.26 257.5L190.71 257.96L190.15 258.39L189.58 258.8L189.01 259.19L188.43 259.54L187.85 259.87L187.27 260.18L186.69 260.46L186.1 260.72L185.52 260.95L185.47 260.97L185.42 260.98L185.36 261L185.29 261.02L185.23 261.04L185.16 261.05L185.08 261.07L185.01 261.09L184.93 261.11L184.85 261.13L184.76 261.14L184.68 261.16L184.59 261.18L184.51 261.2L184.42 261.21L184.33 261.23L184.24 261.25L184.15 261.26L184.06 261.28L183.98 261.29L183.89 261.31L183.81 261.32L183.73 261.33L183.65 261.35L183.57 261.36L183.49 261.37L183.42 261.38L183.35 261.39L183.29 261.4L183.23 261.41L183.17 261.42L183.12 261.43L183.07 261.44L183.03 261.44L182.99 261.45L182.96 261.45L182.94 261.46L182.91 261.46L182.91 262.14L182.92 262.14L182.95 262.14L183 262.14L183.08 262.15L183.18 262.16L183.3 262.18L183.44 262.2L183.6 262.24L183.78 262.29L183.99 262.35L184.21 262.42L184.46 262.52L184.72 262.63L185.01 262.76L185.32 262.92L185.65 263.1L185.99 263.3L186.36 263.53L186.75 263.79L187.15 264.08L187.58 264.41L188.02 264.76L188.49 265.16L188.97 265.59L189.48 266.05L190 266.56L190.54 267.12L191.1 267.71L191.68 268.35L192.27 269.04L192.89 269.78L193.52 270.57L194.17 271.41L194.84 272.31L195.53 273.26L196.23 274.27L196.95 275.34L197.69 276.47L198.45 277.66L199.22 278.92L199.48 279.34L199.78 279.84L200.11 280.4L200.48 281.03L200.89 281.71L201.32 282.45L201.79 283.24L202.27 284.07L202.79 284.95L203.32 285.86L203.87 286.8L204.44 287.77L205.02 288.77L205.61 289.78L206.22 290.81L206.82 291.86L207.44 292.91L208.05 293.96L208.66 295.01L209.27 296.06L209.87 297.09L210.47 298.12L211.05 299.12L211.62 300.1L212.17 301.06L212.71 301.98L213.23 302.87L213.72 303.72L214.19 304.53L214.63 305.29L215.04 305.99L215.41 306.64L215.75 307.23L216.06 307.75L216.32 308.21L216.54 308.59L216.72 308.9L216.85 309.12L216.95 309.3L197.26 309.3L197.24 309.27L197.21 309.22L197.17 309.15L197.12 309.07L197.06 308.96L196.98 308.83L196.89 308.67L196.79 308.49L196.67 308.29L196.54 308.06L196.4 307.81L196.24 307.53L196.06 307.22L195.87 306.88L195.67 306.51L195.44 306.11L195.2 305.69L194.94 305.23L194.67 304.73L194.38 304.21L194.06 303.65L193.73 303.05L193.38 302.42L193.02 301.75L192.63 301.05L192.22 300.31L191.79 299.52L191.34 298.7L190.87 297.84L190.37 296.94L189.86 295.99L189.32 295.01L188.75 293.97L188.17 292.9L187.56 291.78L186.93 290.61L186.27 289.4L185.59 288.14L184.88 286.83L184.28 285.72L183.68 284.64L183.08 283.61L182.49 282.62L181.91 281.66L181.34 280.74L180.77 279.86L180.2 279.01L179.65 278.2L179.09 277.43L178.54 276.69L178 275.98L177.46 275.31L176.92 274.67L176.39 274.06L175.86 273.48L175.34 272.94L174.82 272.42L174.3 271.94L173.78 271.48L173.27 271.05L172.76 270.65L172.25 270.27L171.75 269.92L171.24 269.6L170.74 269.3L170.24 269.03L169.74 268.78L169.24 268.56L168.74 268.36L168.24 268.18L167.75 268.02L167.25 267.88L166.75 267.76L166.25 267.67L165.76 267.59L165.26 267.53L164.76 267.49L164.25 267.46L163.75 267.45L163.55 267.45L163.34 267.45L163.11 267.45L162.87 267.45L162.61 267.45L162.34 267.45L162.06 267.45L161.78 267.45L161.48 267.45L161.17 267.45L160.86 267.45L160.55 267.45L160.23 267.45L159.91 267.45L159.58 267.45L159.26 267.45L158.93 267.45L158.61 267.45L158.29 267.45L157.97 267.45L157.66 267.45L157.35 267.45L157.05 267.45L156.76 267.45L156.48 267.45L156.21 267.45L155.95 267.45L155.7 267.45L155.46 267.45L155.24 267.45L155.04 267.45L154.85 267.46L154.68 267.46L154.53 267.46L154.4 267.46L154.2 267.46L154.09 267.46L154.09 309.3L135.76 309.3L135.76 267.45L112.21 267.45L117.41 251.73L135.76 251.73L135.76 196.65L161.07 196.65L163.38 196.67L165.59 196.73ZM317.91 298.62L317.93 299.06L317.95 299.48L317.99 299.9L318.03 300.31L318.1 300.71L318.17 301.1L318.27 301.48L318.38 301.84L318.51 302.18L318.66 302.51L318.83 302.83L319.02 303.12L319.24 303.4L319.48 303.65L319.75 303.88L320.05 304.09L320.37 304.28L320.72 304.44L321.11 304.57L321.52 304.68L321.97 304.76L322.46 304.8L322.98 304.82L323.51 304.8L324 304.76L324.46 304.68L324.88 304.58L325.27 304.45L325.63 304.3L325.95 304.11L326.25 303.91L326.52 303.68L326.76 303.43L326.97 303.16L327.16 302.87L327.33 302.56L327.48 302.23L327.6 301.89L327.71 301.53L327.8 301.15L327.87 300.76L327.93 300.36L327.97 299.94L328.01 299.52L328.03 299.08L328.04 298.64L328.04 298.18L328.04 283.53L332.6 283.53L332.6 298.4L332.58 299.21L332.54 299.99L332.47 300.74L332.37 301.47L332.24 302.18L332.07 302.85L331.88 303.5L331.65 304.12L331.39 304.71L331.09 305.26L330.76 305.79L330.4 306.28L330 306.74L329.56 307.16L329.08 307.55L328.57 307.9L328.01 308.21L327.42 308.48L326.78 308.72L326.11 308.91L325.39 309.07L324.63 309.18L323.83 309.24L322.98 309.26L322.13 309.24L321.33 309.17L320.56 309.06L319.85 308.91L319.17 308.72L318.54 308.48L317.94 308.2L317.39 307.89L316.87 307.54L316.4 307.15L315.96 306.73L315.55 306.27L315.19 305.77L314.86 305.25L314.56 304.69L314.3 304.1L314.07 303.48L313.88 302.84L313.71 302.16L313.58 301.46L313.48 300.73L313.41 299.98L313.37 299.2L313.35 298.4L313.35 283.53L317.91 283.53L317.91 298.18L317.91 298.62ZM489.06 283.53L493.62 283.53L493.62 308.97L489.86 308.97L479.77 293.05L479.77 308.97L475.18 308.97L475.18 283.53L478.96 283.53L489.06 299.46L489.06 283.53ZM578.87 308.97L573.36 308.97L583.61 296.25L573.36 283.53L578.87 283.53L589.11 296.25L578.87 308.97ZM288.39 308.97L288.39 283.53L292.99 283.53L292.99 308.97L288.39 308.97ZM357.55 288.05L357.55 308.97L352.96 308.97L352.96 288.05L345.63 288.05L345.63 283.53L364.88 283.53L364.88 288.05L357.55 288.05ZM421.17 283.69L422.59 283.9L423.86 284.19L424.97 284.58L425.94 285.07L426.78 285.66L427.49 286.35L428.09 287.16L428.58 288.08L428.96 289.12L429.26 290.28L429.48 291.57L429.63 292.99L429.71 294.55L429.73 296.25L429.71 297.94L429.63 299.5L429.48 300.92L429.26 302.21L428.96 303.37L428.58 304.41L428.09 305.33L427.49 306.14L426.78 306.84L425.94 307.43L424.97 307.92L423.86 308.31L422.59 308.6L421.17 308.81L419.58 308.93L417.81 308.97L410.63 308.97L410.63 283.53L417.81 283.53L419.58 283.57L421.17 283.69ZM546.59 308.97L541.08 308.97L551.33 296.25L541.08 283.53L546.59 283.53L556.83 296.25L546.59 308.97ZM523.55 308.97L521.11 302.34L512.14 302.34L509.74 308.97L504.78 308.97L514.55 283.53L518.66 283.53L528.51 308.97L523.55 308.97ZM459.01 308.97L456.56 302.34L447.6 302.34L445.19 308.97L440.23 308.97L450 283.53L454.12 283.53L463.96 308.97L459.01 308.97ZM394.45 308.97L392 302.34L383.04 302.34L380.63 308.97L375.67 308.97L385.44 283.53L389.56 283.53L399.4 308.97L394.45 308.97ZM415.22 304.46L418.83 304.46L419.8 304.44L420.67 304.38L421.44 304.28L422.13 304.13L422.73 303.94L423.25 303.68L423.69 303.37L424.06 303L424.37 302.56L424.56 302.17L424.72 301.74L424.85 301.24L424.95 300.67L425.02 300.01L425.08 299.26L425.11 298.4L425.13 297.41L425.14 296.29L425.13 295.19L425.11 294.2L425.08 293.31L425.02 292.53L424.94 291.85L424.84 291.25L424.7 290.72L424.54 290.27L424.34 289.88L424.03 289.45L423.65 289.09L423.21 288.79L422.69 288.55L422.1 288.36L421.42 288.22L420.65 288.12L419.79 288.07L418.83 288.05L415.22 288.05L415.22 304.46ZM519.65 298.33L516.63 290.13L513.64 298.33L519.65 298.33ZM455.1 298.33L452.08 290.13L449.09 298.33L455.1 298.33ZM390.54 298.33L387.52 290.13L384.53 298.33L390.54 298.33ZM293.51 240.29L294.73 240.67L295.84 241.19L296.83 241.83L297.71 242.59L298.49 243.46L299.16 244.42L299.73 245.47L300.2 246.59L300.58 247.78L300.87 249.02L301.07 250.31L301.19 251.63L301.23 252.98L301.19 254.32L301.07 255.64L300.87 256.92L300.58 258.16L300.2 259.35L299.73 260.47L299.16 261.52L298.49 262.49L297.71 263.35L296.83 264.12L295.84 264.77L294.73 265.29L293.51 265.67L292.16 265.91L290.69 265.99L289.23 265.91L287.88 265.67L286.66 265.29L285.55 264.77L284.56 264.12L283.68 263.35L282.91 262.49L282.23 261.52L281.66 260.47L281.19 259.35L280.81 258.16L280.52 256.92L280.32 255.64L280.2 254.32L280.16 252.98L280.2 251.64L280.32 250.32L280.52 249.04L280.81 247.79L281.19 246.61L281.66 245.49L282.23 244.44L282.91 243.47L283.68 242.61L284.56 241.84L285.55 241.19L286.66 240.67L287.88 240.29L289.23 240.05L290.69 239.97L292.16 240.05L293.51 240.29ZM388.89 240.42L390.32 240.62L391.58 240.92L392.69 241.31L393.66 241.79L394.5 242.38L395.21 243.08L395.81 243.88L396.3 244.81L396.69 245.85L396.98 247.01L397.2 248.3L397.35 249.72L397.43 251.28L397.45 252.98L397.43 254.67L397.35 256.23L397.2 257.65L396.98 258.93L396.69 260.1L396.3 261.14L395.81 262.06L395.21 262.87L394.5 263.57L393.66 264.16L392.69 264.65L391.58 265.04L390.32 265.33L388.89 265.54L387.3 265.66L385.54 265.7L378.35 265.7L378.35 240.26L385.54 240.26L387.3 240.3L388.89 240.42ZM426.73 265.7L424.28 259.07L415.32 259.07L412.91 265.7L407.95 265.7L417.72 240.26L421.84 240.26L431.68 265.7L426.73 265.7ZM351.63 244.78L351.63 250.46L362.64 250.46L362.64 254.77L351.63 254.77L351.63 261.18L364.24 261.18L364.24 265.7L347.03 265.7L347.03 240.26L364.24 240.26L364.24 244.78L351.63 244.78ZM265.62 240.26L269.95 240.26L269.95 265.7L265.33 265.7L265.33 252.03L259.89 265.7L256.9 265.7L251.51 252.07L251.51 265.7L246.88 265.7L246.88 240.26L251.29 240.26L258.4 258.37L265.62 240.26ZM327.64 240.26L332.2 240.26L332.2 265.7L328.44 265.7L318.35 249.77L318.35 265.7L313.76 265.7L313.76 240.26L317.55 240.26L327.64 256.19L327.64 240.26ZM556.76 265.7L551.29 265.7L541.04 252.98L551.29 240.26L556.76 240.26L546.55 252.98L556.76 265.7ZM492.22 265.7L486.75 265.7L476.5 252.98L486.75 240.26L492.22 240.26L482.01 252.98L492.22 265.7ZM459.92 265.7L454.45 265.7L444.2 252.98L454.45 240.26L459.92 240.26L449.71 252.98L459.92 265.7ZM524.46 265.7L518.99 265.7L508.75 252.98L518.99 240.26L524.46 240.26L514.25 252.98L524.46 265.7ZM589.03 265.7L583.57 265.7L573.32 252.98L583.57 240.26L589.03 240.26L578.83 252.98L589.03 265.7ZM287.93 245.1L286.94 245.81L286.16 246.72L285.59 247.8L285.19 249.01L284.93 250.3L284.8 251.64L284.76 252.98L284.8 254.32L284.93 255.65L285.19 256.95L285.59 258.16L286.16 259.24L286.94 260.15L287.93 260.86L289.18 261.31L290.69 261.47L292.21 261.31L293.46 260.86L294.45 260.15L295.21 259.24L295.78 258.16L296.18 256.95L296.43 255.65L296.56 254.32L296.6 252.98L296.56 251.64L296.44 250.3L296.19 249.01L295.79 247.8L295.23 246.72L294.46 245.81L293.47 245.1L292.22 244.65L290.69 244.49L289.18 244.65L287.93 245.1ZM382.95 261.18L386.55 261.18L387.52 261.16L388.39 261.11L389.17 261.01L389.85 260.86L390.45 260.66L390.97 260.41L391.41 260.1L391.78 259.72L392.09 259.28L392.28 258.9L392.44 258.46L392.57 257.97L392.67 257.4L392.74 256.74L392.8 255.99L392.83 255.12L392.85 254.14L392.86 253.02L392.85 251.91L392.83 250.92L392.8 250.04L392.74 249.26L392.66 248.57L392.56 247.97L392.42 247.45L392.26 246.99L392.06 246.6L391.75 246.17L391.37 245.81L390.93 245.51L390.41 245.27L389.82 245.08L389.14 244.94L388.37 244.85L387.51 244.79L386.55 244.78L382.95 244.78L382.95 261.18ZM422.82 255.06L419.8 246.86L416.81 255.06L422.82 255.06ZM153.96 251.73L163.75 251.73L165.17 251.71L166.57 251.62L167.94 251.48L169.27 251.28L170.57 251.02L171.82 250.69L173.04 250.29L174.21 249.82L175.33 249.28L176.4 248.66L177.42 247.96L178.38 247.18L179.28 246.32L180.11 245.38L180.88 244.34L181.59 243.21L182.22 241.99L182.77 240.68L183.25 239.26L183.65 237.75L183.96 236.13L184.19 234.4L184.33 232.57L184.38 230.63L184.34 229.01L184.23 227.47L184.05 226.02L183.79 224.66L183.46 223.37L183.06 222.17L182.58 221.05L182.04 220L181.42 219.02L180.73 218.13L179.97 217.3L179.14 216.54L178.24 215.86L177.26 215.24L176.22 214.69L175.11 214.2L173.93 213.77L172.68 213.41L171.36 213.11L169.97 212.86L168.52 212.67L167 212.54L165.41 212.46L163.75 212.44L153.96 212.44L153.96 251.73ZM325.38 196.7L325.91 196.75L326.42 196.82L326.91 196.91L327.39 197.03L327.85 197.16L328.3 197.32L328.73 197.5L329.15 197.7L329.56 197.92L329.96 198.17L330.36 198.44L330.74 198.73L331.12 199.04L331.49 199.38L331.86 199.74L332.23 200.12L332.6 200.53L332.96 200.96L329.72 204.13L329.49 203.87L329.26 203.62L329.03 203.38L328.8 203.15L328.57 202.93L328.33 202.72L328.09 202.52L327.85 202.33L327.6 202.16L327.34 202L327.08 201.85L326.81 201.71L326.53 201.59L326.24 201.48L325.94 201.39L325.62 201.32L325.3 201.26L324.96 201.21L324.61 201.19L324.25 201.18L323.55 201.21L322.91 201.31L322.31 201.47L321.76 201.69L321.25 201.96L320.78 202.27L320.36 202.64L319.98 203.05L319.64 203.49L319.33 203.96L319.06 204.47L318.83 205L318.62 205.56L318.45 206.13L318.32 206.71L318.2 207.31L318.12 207.91L318.06 208.51L318.03 209.11L318.02 209.71L318.03 210.3L318.06 210.9L318.12 211.5L318.2 212.11L318.32 212.7L318.45 213.29L318.62 213.86L318.83 214.41L319.06 214.94L319.33 215.45L319.64 215.92L319.98 216.37L320.36 216.77L320.78 217.14L321.25 217.46L321.76 217.73L322.31 217.94L322.91 218.1L323.55 218.2L324.25 218.24L324.63 218.23L324.99 218.2L325.33 218.15L325.67 218.09L325.99 218.01L326.3 217.91L326.6 217.8L326.89 217.67L327.17 217.52L327.44 217.36L327.71 217.19L327.96 217L328.21 216.8L328.46 216.59L328.7 216.36L328.94 216.12L329.17 215.87L329.4 215.61L329.64 215.34L329.87 215.06L333.11 218.16L332.71 218.63L332.32 219.07L331.94 219.48L331.56 219.87L331.19 220.23L330.82 220.57L330.44 220.88L330.06 221.16L329.68 221.43L329.28 221.66L328.87 221.87L328.45 222.06L328.01 222.23L327.55 222.37L327.07 222.49L326.57 222.59L326.03 222.66L325.47 222.71L324.88 222.75L324.25 222.76L323.15 222.71L322.11 222.57L321.14 222.35L320.22 222.05L319.37 221.68L318.57 221.23L317.83 220.71L317.16 220.13L316.54 219.48L315.97 218.79L315.47 218.04L315.02 217.24L314.62 216.41L314.28 215.53L314 214.62L313.76 213.68L313.58 212.71L313.46 211.73L313.38 210.72L313.35 209.71L313.38 208.68L313.45 207.68L313.58 206.69L313.76 205.72L313.99 204.78L314.28 203.87L314.61 202.99L315.01 202.15L315.46 201.36L315.96 200.61L316.52 199.92L317.14 199.28L317.82 198.7L318.55 198.18L319.35 197.73L320.21 197.36L321.12 197.06L322.1 196.84L323.15 196.7L324.25 196.66L324.82 196.67L325.38 196.7ZM260.19 197.05L260.85 197.13L261.49 197.24L262.1 197.39L262.7 197.56L263.26 197.78L263.8 198.02L264.31 198.31L264.79 198.62L265.24 198.98L265.65 199.37L266.03 199.79L266.36 200.25L266.66 200.75L266.92 201.29L267.13 201.87L267.3 202.48L267.43 203.14L267.5 203.83L267.53 204.57L267.52 205.04L267.47 205.5L267.41 205.94L267.31 206.38L267.19 206.8L267.05 207.21L266.88 207.61L266.68 207.99L266.46 208.36L266.22 208.71L265.96 209.05L265.67 209.37L265.36 209.67L265.03 209.96L264.68 210.23L264.31 210.47L263.92 210.7L263.51 210.91L263.08 211.1L262.64 211.27L262.17 211.42L262.23 211.47L262.3 211.52L262.36 211.58L262.42 211.64L262.49 211.71L262.55 211.78L262.61 211.85L262.68 211.92L262.74 212L262.8 212.08L262.86 212.16L262.92 212.24L262.98 212.33L263.04 212.41L263.1 212.49L263.15 212.58L263.21 212.66L263.26 212.74L263.31 212.83L263.36 212.91L263.41 212.99L269.39 222.43L264.07 222.43L258.89 213.79L258.78 213.61L258.68 213.43L258.58 213.27L258.48 213.12L258.38 212.97L258.28 212.84L258.18 212.71L258.07 212.6L257.97 212.49L257.86 212.39L257.74 212.31L257.61 212.23L257.48 212.16L257.34 212.09L257.19 212.04L257.03 211.99L256.86 211.96L256.68 211.93L256.48 211.91L256.27 211.9L256.05 211.89L254.23 211.89L254.23 222.43L249.63 222.43L249.63 196.98L258.82 196.98L259.51 197L260.19 197.05ZM287.07 201.5L287.07 207.19L298.07 207.19L298.07 211.49L287.07 211.49L287.07 217.91L299.68 217.91L299.68 222.43L282.48 222.43L282.48 196.98L299.68 196.98L299.68 201.5L287.07 201.5ZM578.86 222.43L573.36 222.43L583.6 209.71L573.36 196.99L578.86 196.99L589.1 209.71L578.86 222.43ZM514.29 222.43L508.79 222.43L519.03 209.71L508.79 196.99L514.29 196.99L524.53 209.71L514.29 222.43ZM449.74 222.43L444.24 222.43L454.48 209.71L444.24 196.99L449.74 196.99L459.99 209.71L449.74 222.43ZM385.18 222.43L379.68 222.43L389.92 209.71L379.68 196.99L385.18 196.99L395.43 209.71L385.18 222.43ZM352.91 222.43L347.4 222.43L357.64 209.71L347.4 196.99L352.91 196.99L363.15 209.71L352.91 222.43ZM417.47 222.43L411.96 222.43L422.2 209.71L411.96 196.99L417.47 196.99L427.71 209.71L417.47 222.43ZM482.05 222.43L476.54 222.43L486.78 209.71L476.54 196.99L482.05 196.99L492.29 209.71L482.05 222.43ZM546.58 222.43L541.08 222.43L551.32 209.71L541.08 196.99L546.58 196.99L556.83 209.71L546.58 222.43ZM254.23 207.85L258.85 207.85L260.16 207.76L261.28 207.46L262.16 206.87L262.73 205.93L262.94 204.57L262.73 203.24L262.14 202.33L261.25 201.77L260.13 201.48L258.85 201.39L254.23 201.39L254.23 207.85Z" id="b3GbfQqH2x"></path></defs><g><g><g><use xlink:href="#ckaQMovNq" opacity="1" fill="#d1d1d1" fill-opacity="1"></use></g><g><use xlink:href="#a3fWxsU2Cb" opacity="1" fill="#d1d1d1" fill-opacity="1"></use></g><g><use xlink:href="#dcjk1ONji" opacity="1" fill="#d1d1d1" fill-opacity="1"></use><g><use xlink:href="#dcjk1ONji" opacity="1" fill-opacity="0" stroke="#d1d1d1" stroke-width="1" stroke-opacity="1"></use></g></g><g><use xlink:href="#d2F0P2Dq7w" opacity="1" fill="#d1d1d1" fill-opacity="1"></use></g><g><use xlink:href="#b1E5y4H74" opacity="1" fill="#d1d1d1" fill-opacity="1"></use></g><g><g><use xlink:href="#bN4eXvOzI" opacity="1" fill="url(#gradientbfCzbpv9p)"></use></g><g><use xlink:href="#a1dNzpub4C" opacity="1" fill="url(#gradientj2rcCCpCXN)"></use></g><g><use xlink:href="#b3GbfQqH2x" opacity="1" fill="#ffffff" fill-opacity="1"></use><g><use xlink:href="#b3GbfQqH2x" opacity="1" fill-opacity="0" stroke="#000000" stroke-width="1" stroke-opacity="0"></use></g></g></g></g></g></svg>