<svg width="17" height="17" viewBox="0 0 17 17" fill="none" xmlns="http://www.w3.org/2000/svg">
<path d="M7.38108 6.60038C8.03686 5.88909 8.39817 4.93499 8.39817 3.91355C8.39817 1.96876 7.00906 0 4.35361 0C3.11783 0 2.07529 0.424459 1.33855 1.22746C0.685961 1.93885 0.32666 2.89275 0.32666 3.91355C0.32666 5.85855 1.70989 7.82721 4.35361 7.82721C5.59401 7.82726 6.64111 7.40312 7.38108 6.60038ZM4.35361 1.81967C5.80858 1.81967 6.47119 2.90579 6.47119 3.91493C6.47119 4.46387 6.28648 4.97205 5.95077 5.34566C5.57625 5.76296 5.03197 5.98362 4.37721 5.98362C2.88545 5.98362 2.20587 4.89761 2.20587 3.88858C2.20587 2.85892 2.87007 1.81967 4.35361 1.81967Z" fill="#BDBDBD"/>
<path d="M14.011 1.50974C13.7704 1.51408 13.4418 1.66412 13.2809 1.84306L1.33514 15.1246C1.17423 15.3037 1.28821 15.5546 1.52886 15.5546H3.09235C3.333 15.5546 3.66123 15.4079 3.82187 15.2287L15.6937 1.94984C15.8543 1.77048 15.8437 1.47867 15.446 1.47878L14.011 1.50974Z" fill="#BDBDBD"/>
<path d="M12.7057 9.32164C11.4937 9.32164 10.471 9.73825 9.74818 10.5259C9.10804 11.2235 8.75537 12.1595 8.75537 13.1609C8.75537 15.0687 10.1123 17 12.7057 17C13.9228 17 14.9497 16.5838 15.6758 15.7964C16.3191 15.0986 16.6735 14.1626 16.6735 13.1609C16.6734 11.2531 15.3106 9.32164 12.7057 9.32164ZM12.7291 15.2382C11.2777 15.2382 10.6165 14.1483 10.6165 13.1362C10.6165 12.5849 10.8011 12.0748 11.1365 11.6998C11.5104 11.2813 12.053 11.0601 12.7057 11.0601C14.1572 11.0601 14.8182 12.1498 14.8182 13.1622C14.8182 13.7134 14.6335 14.2236 14.2983 14.5986C13.9243 15.017 13.3816 15.2382 12.7291 15.2382Z" fill="#BDBDBD"/>
</svg>
