<svg width="14" height="16" viewBox="0 0 14 16" fill="none" xmlns="http://www.w3.org/2000/svg">
<path d="M5.634 7.432V2.13C6.426 2.13 6.868 2.13 6.956 2.13C8.78 2.13 9.738 2.788 9.738 4.584C9.738 6.744 8.506 7.432 6.956 7.432C6.78 7.432 6.338 7.432 5.634 7.432ZM11.742 11.1C10.334 8.78 9.54 8.836 9.54 8.836C9.54 8.828 9.54 8.754 9.54 8.744C9.54 8.744 9.808 8.706 9.892 8.676C10.942 8.284 12.018 6.988 12.018 4.62C12.018 1.386 10.808 0 6.594 0C6.366 0 5.228 0 3.178 0V7.432H0.702L0 9.552H3.178V9.586V15.2H5.652V9.75C5.652 9.632 5.652 9.566 5.652 9.554C5.652 9.554 6.614 9.55 6.956 9.552C7.862 9.552 8.708 10.13 9.806 12.168C11.102 14.566 11.476 15.2 11.476 15.2C11.742 15.2 13.868 15.2 14.134 15.2C14.134 15.2 12.166 11.8 11.742 11.1Z" fill="white"/>
</svg>
