<svg width="14" height="16" viewBox="0 0 14 16" fill="none" xmlns="http://www.w3.org/2000/svg">
<g clip-path="url(#clip0)">
<path d="M4.634 7.432V2.13C5.426 2.13 5.868 2.13 5.956 2.13C7.78 2.13 8.738 2.788 8.738 4.584C8.738 6.744 7.506 7.432 5.956 7.432C5.78 7.432 5.338 7.432 4.634 7.432ZM10.742 11.1C9.334 8.78 8.54 8.836 8.54 8.836C8.54 8.828 8.54 8.754 8.54 8.744C8.54 8.744 8.808 8.706 8.892 8.676C9.942 8.284 11.018 6.988 11.018 4.62C11.018 1.386 9.808 0 5.594 0C5.366 0 4.228 0 2.178 0V7.432H-0.298L-1 9.552H2.178V9.586V15.2H4.652V9.75C4.652 9.632 4.652 9.566 4.652 9.554C4.652 9.554 5.614 9.55 5.956 9.552C6.862 9.552 7.708 10.13 8.806 12.168C10.102 14.566 10.476 15.2 10.476 15.2C10.742 15.2 12.868 15.2 13.134 15.2C13.134 15.2 11.166 11.8 10.742 11.1Z" fill="white"/>
</g>
<defs>
<clipPath id="clip0">
<rect width="14" height="15.2" fill="white"/>
</clipPath>
</defs>
</svg>
