<svg width="64" height="58" viewBox="0 0 64 58" fill="none" xmlns="http://www.w3.org/2000/svg">
<path d="M39.9982 40.9026C42.3737 42.2811 45.2906 43.0134 47.863 41.678C50.0661 40.5272 51.2046 38.3241 51.6969 35.9671C52.2508 33.2778 52.0354 30.4039 51.4877 27.7331C50.8538 24.6315 49.6661 21.6161 47.9799 18.933C46.3245 16.2991 44.0599 13.936 41.2906 12.4713C38.109 10.7851 34.5089 10.3359 30.9519 10.5882C22.761 11.1728 14.7609 15.1421 8.73617 20.613C3.03146 25.7885 -1.22092 33.2901 0.317567 41.198C1.60374 47.8135 6.29306 53.1182 12.4716 55.5798C18.1579 57.8444 24.6564 57.949 30.6258 56.9582C37.2105 55.8628 43.5983 53.512 49.1923 49.8443C53.9923 46.6996 58.4786 42.3057 60.4478 36.7979C62.5463 30.9393 61.3155 24.9023 57.9924 19.7515C56.1154 16.8345 53.6662 14.2129 51.2415 11.7452C49.2107 9.68359 47.0384 7.75125 44.6876 6.05891C40.8783 3.31425 36.5828 1.25268 31.9489 0.391123C28.1765 -0.310427 24.1703 -0.0765772 20.5333 1.16037C16.9579 2.3727 13.7578 4.38504 11.0931 7.06201C8.65617 9.51128 6.71768 12.5206 5.45612 15.7329C4.18225 18.9699 3.50531 22.4407 3.62839 25.9177C3.75762 29.5978 4.68687 33.1117 6.46536 36.3425C8.37309 39.8133 11.2593 42.6995 14.564 44.8596C18.8717 47.6781 23.8503 49.2843 28.8842 50.2074C35.7151 51.4566 42.7737 51.3705 49.66 50.6751C53.9554 50.2443 58.2263 49.5427 62.4602 48.6873C63.1617 48.5458 64.1956 47.8319 63.9679 46.995C63.7279 46.0965 62.4971 46.1458 61.814 46.2873C60.7309 46.5088 59.6417 46.7181 58.5524 46.915C58.1586 46.9827 58.3678 46.9458 58.4539 46.9335C58.3247 46.9581 58.1893 46.9765 58.0601 47.0012C57.7955 47.0442 57.5309 47.0873 57.2724 47.1365C56.7555 47.2227 56.2324 47.3027 55.7154 47.3827C53.7339 47.6842 51.7461 47.9366 49.7523 48.1335C47.8815 48.3181 46.0107 48.4535 44.1399 48.5212C43.2722 48.552 42.4044 48.5766 41.5367 48.5827C41.3521 48.5827 41.1675 48.5827 40.9829 48.5827C40.8906 48.5827 40.2813 48.5766 40.669 48.5827C40.2321 48.5766 39.7952 48.5704 39.3582 48.5581C36.3551 48.472 33.3458 48.2073 30.3858 47.6781C30.0658 47.6227 29.7519 47.5612 29.4381 47.4996C29.315 47.475 28.8719 47.3827 29.2411 47.4627C29.0565 47.4258 28.8719 47.3827 28.6934 47.3396C28.0596 47.1981 27.4257 47.0381 26.798 46.8719C25.6103 46.5519 24.4411 46.1765 23.2903 45.7457C22.7426 45.5427 22.2072 45.3273 21.6718 45.0934C21.4133 44.9827 21.1548 44.8657 20.8964 44.7488C20.5764 44.6073 21.0625 44.835 20.8225 44.7119C20.6687 44.638 20.5087 44.5642 20.3548 44.4842C19.4071 44.0103 18.4779 43.4872 17.5856 42.9088C16.7425 42.3672 15.9363 41.7826 15.1609 41.1487C14.9824 41.0072 14.8101 40.8595 14.644 40.7118C14.5517 40.6318 14.4655 40.5518 14.3732 40.4718C14.1393 40.2687 14.5517 40.6441 14.2747 40.3795C13.9363 40.0595 13.5978 39.7333 13.2778 39.3949C12.047 38.1087 10.9639 36.681 10.0777 35.1425C9.97927 34.9702 9.88081 34.7917 9.78234 34.6133C9.71465 34.484 9.41311 33.8932 9.58542 34.2379C9.4008 33.8563 9.22233 33.4748 9.05618 33.0871C8.73002 32.3178 8.45309 31.5301 8.21924 30.7301C7.75769 29.1485 7.48692 27.5239 7.37615 25.8808C7.40692 26.2993 7.36999 25.6654 7.36384 25.53C7.35769 25.3269 7.35153 25.1239 7.35153 24.9208C7.35153 24.5146 7.35769 24.1085 7.37615 23.6961C7.41307 22.8715 7.49308 22.0469 7.61615 21.2284C7.73923 20.4222 7.89924 19.6284 8.09616 18.8345C8.19462 18.4407 8.3054 18.053 8.42232 17.6591C8.44694 17.573 8.47771 17.4868 8.50232 17.4068C8.37924 17.813 8.47771 17.4806 8.51463 17.3822C8.58232 17.1791 8.65002 16.976 8.72386 16.7729C9.27156 15.2468 9.97312 13.776 10.8039 12.3852C11.0131 12.0406 11.2285 11.6959 11.4501 11.3636C11.5055 11.2775 11.5608 11.1975 11.6162 11.1113C11.6531 11.0559 11.407 11.4067 11.5916 11.1544C11.7147 10.9821 11.8378 10.8036 11.967 10.6375C12.4532 9.97898 12.9762 9.35128 13.5301 8.74819C13.8009 8.4528 14.0778 8.16356 14.367 7.88048C14.5024 7.75125 14.6378 7.62202 14.7732 7.49278C14.8347 7.43124 14.9024 7.37586 14.964 7.31432C15.2594 7.03124 14.6686 7.56663 14.9763 7.30201C15.5855 6.78508 16.2071 6.28045 16.8655 5.81891C17.1917 5.59121 17.5302 5.36967 17.8686 5.15428C18.0902 5.01889 18.5086 4.81581 18.0102 5.06197C18.201 4.96966 18.3794 4.85274 18.5702 4.74812C19.2779 4.36657 20.0102 4.02195 20.761 3.72656C20.8533 3.68964 20.9518 3.65272 21.0441 3.61579C21.3949 3.47425 20.8225 3.68964 20.8902 3.67118C21.0933 3.60964 21.2964 3.52964 21.5056 3.46194C21.8933 3.33886 22.2872 3.22194 22.6872 3.12348C23.0872 3.01886 23.4933 2.93886 23.8995 2.8527C24.3241 2.76655 23.5426 2.90809 23.7887 2.87117C23.8934 2.85886 23.998 2.8404 24.0964 2.82193C24.3057 2.79116 24.5149 2.76039 24.7241 2.73578C25.5795 2.63116 26.4349 2.6127 27.2965 2.58808C26.6134 2.60655 27.3888 2.59424 27.5673 2.60039C27.7888 2.6127 28.0103 2.61885 28.2319 2.63731C28.6811 2.66808 29.1365 2.71732 29.5858 2.77885C30.0473 2.84039 30.5027 2.9204 30.9581 3.00655C31.3766 3.08655 30.7058 2.94501 30.9704 3.00655C31.0873 3.03732 31.2043 3.05578 31.3212 3.08655C31.555 3.14194 31.7889 3.19733 32.0227 3.25886C32.9889 3.51118 33.9428 3.82503 34.8782 4.19427C35.3828 4.39119 35.8813 4.60658 36.3797 4.82812C36.4843 4.87735 36.5951 4.92659 36.6997 4.97582C36.3243 4.79735 36.712 4.98197 36.8043 5.0312C37.069 5.16044 37.3274 5.29582 37.5859 5.43121C38.6136 5.97276 39.6044 6.56354 40.5706 7.20355C41.6167 7.89279 42.626 8.63742 43.6045 9.41897C44.706 10.299 45.6476 11.1298 46.5153 11.9482C48.8415 14.1514 51.0754 16.5637 53.0569 19.0807C55.0385 21.5976 56.5462 24.2069 57.3462 27.3024C58.0109 29.8624 58.0724 32.1763 57.457 34.8348C57.3893 35.124 57.3155 35.4071 57.2355 35.6902C57.217 35.7517 57.1001 36.1456 57.137 36.0348C57.1616 35.9487 57.0324 36.3364 57.0016 36.4287C56.7862 37.0256 56.5401 37.6164 56.2631 38.1887C55.9862 38.7733 55.6785 39.3395 55.3462 39.8872C55.18 40.1703 55.0016 40.441 54.8231 40.7118L54.7185 40.8657C54.5954 41.0503 54.86 40.6687 54.7308 40.8534C54.6262 41.0072 54.5154 41.1549 54.4046 41.3088C53.5985 42.398 52.7 43.4196 51.7338 44.3734C51.4877 44.6196 51.2354 44.8596 50.9769 45.0934C50.9154 45.155 50.8477 45.2104 50.78 45.2719C50.7923 45.2596 50.9954 45.0811 50.8538 45.2042C50.7061 45.3334 50.5584 45.4688 50.4046 45.5981C49.863 46.0596 49.303 46.5088 48.7307 46.9335C48.1461 47.3704 47.5491 47.7889 46.9461 48.1889C46.6384 48.3919 46.3307 48.5889 46.0168 48.7858C45.8568 48.8843 45.703 48.9766 45.543 49.075C45.4814 49.112 45.4199 49.1427 45.3645 49.1797C45.1737 49.2966 45.6537 49.0197 45.3522 49.1858C44.0352 49.9243 42.706 50.6197 41.3275 51.2351C40.6321 51.5489 39.9306 51.8382 39.2167 52.1151C39.0382 52.1828 38.8598 52.2505 38.6813 52.3182C38.589 52.3551 38.5028 52.3859 38.4105 52.4166C38.829 52.2628 38.5705 52.3551 38.4782 52.392C38.0967 52.5274 37.709 52.6628 37.3213 52.7859C35.8689 53.2597 34.392 53.6659 32.8966 53.9982C32.5458 54.072 32.2012 54.1459 31.8504 54.2197C31.6658 54.2567 31.475 54.2936 31.2904 54.3244C31.1981 54.3428 31.1058 54.3613 31.0073 54.3736C31.2412 54.3305 31.2596 54.3305 31.0196 54.3674C30.275 54.4905 29.5304 54.5951 28.7857 54.6813C27.315 54.8474 25.8442 54.9274 24.3611 54.9336C23.9057 54.9398 24.6072 54.9459 24.1518 54.9336C23.9918 54.9274 23.838 54.9274 23.678 54.9213C23.2964 54.909 22.9149 54.8905 22.5333 54.8659C21.8256 54.8228 21.1241 54.749 20.4225 54.6567C20.0964 54.6136 19.7764 54.5644 19.4564 54.5151C19.284 54.4844 19.1179 54.4597 18.9456 54.4228C18.8533 54.4044 18.3425 54.3059 18.5271 54.3428C18.7363 54.3859 18.2317 54.2751 18.1763 54.2628C18.0286 54.2321 17.8871 54.1951 17.7456 54.1582C17.3948 54.072 17.0502 53.9797 16.7117 53.8751C16.0778 53.6905 15.444 53.4751 14.8286 53.2351C14.5209 53.1182 14.2193 52.9951 13.924 52.8597C13.7947 52.8043 13.6655 52.7428 13.5363 52.6813C13.8563 52.8289 13.327 52.5766 13.2347 52.5274C12.1024 51.9489 11.0193 51.2597 10.0285 50.4597C9.91773 50.3735 9.81312 50.2812 9.7085 50.1951C9.65927 50.152 9.35157 49.8812 9.43772 49.9612C9.53619 50.0535 9.26541 49.8012 9.22234 49.7581C9.0808 49.6227 8.93925 49.4812 8.80387 49.3397C8.36078 48.8843 7.94232 48.3981 7.55462 47.8873C6.40383 46.3796 5.45612 44.6996 4.79764 42.9149C3.54839 39.5303 3.45608 35.9487 4.46533 32.484C5.44996 29.1178 7.46846 26.1023 9.85619 23.5423C11.2039 22.1023 12.3732 21.0622 13.9609 19.8622C14.7363 19.2776 15.5363 18.7176 16.3548 18.1945C16.5578 18.0653 16.7671 17.936 16.9702 17.8068C17.0317 17.7699 17.5671 17.4499 17.3456 17.5791C17.764 17.333 18.1886 17.0991 18.6194 16.8714C19.4687 16.416 20.3364 15.9975 21.2225 15.6037C21.6595 15.4129 22.1026 15.2283 22.5456 15.0498C22.7672 14.9637 22.9887 14.8775 23.2103 14.7975C22.8656 14.9268 23.4626 14.7052 23.5672 14.6744C24.4411 14.3729 25.3334 14.1021 26.2319 13.8744C26.6688 13.7637 27.1119 13.659 27.5611 13.5667C27.7827 13.5237 28.0042 13.4806 28.2196 13.4375C27.8073 13.5175 28.5211 13.3883 28.6257 13.376C29.4811 13.2467 30.3427 13.1606 31.2104 13.1175C31.395 13.1052 31.5796 13.099 31.7643 13.099C31.8566 13.099 32.4597 13.0929 32.0781 13.0929C32.515 13.099 32.952 13.1175 33.3828 13.1483C33.7581 13.179 34.1335 13.216 34.5089 13.2652C34.7059 13.2898 34.9028 13.3206 35.0936 13.3575C35.192 13.376 35.2843 13.3944 35.3828 13.4129C35.6905 13.4683 35.2782 13.3883 35.4628 13.4313C36.1951 13.5975 36.9151 13.819 37.6105 14.1021C37.7582 14.1637 37.9059 14.2252 38.0536 14.2929C38.3244 14.4098 38.1336 14.3298 38.0782 14.2991C38.1582 14.3421 38.2444 14.3791 38.3244 14.4221C38.669 14.6006 39.0075 14.7914 39.3398 14.9945C39.9613 15.3821 40.5521 15.8129 41.1121 16.2806C42.0044 17.0314 43.1121 18.256 43.9306 19.4007C45.6783 21.8315 46.8107 24.4223 47.5738 27.3762C48.2692 30.0655 48.5584 32.4532 48.2322 35.1363C48.1645 35.6963 48.0661 36.2564 47.9245 36.8041C47.8938 36.9333 47.8507 37.0625 47.8199 37.1918C47.7522 37.4318 47.9122 36.9518 47.7953 37.2718C47.703 37.5241 47.6107 37.7702 47.4999 38.0102C47.4076 38.2133 47.3091 38.4102 47.1922 38.6072C47.1368 38.7056 47.0691 38.8041 47.0138 38.9026C47.0876 38.7733 47.1491 38.7364 46.9707 38.9579C46.8414 39.1118 46.7061 39.2595 46.5707 39.4133C46.3307 39.678 46.5584 39.401 46.6014 39.3887C46.5276 39.4133 46.3922 39.5487 46.3245 39.5979C46.0291 39.8256 46.3184 39.721 46.4045 39.561C46.3799 39.6103 46.2199 39.6595 46.1645 39.6841C46.0907 39.7149 45.703 39.8872 46.0784 39.7272C46.4476 39.5733 46.066 39.7149 45.9799 39.7456C45.5983 39.8687 46.066 39.6595 46.1276 39.7333L45.8014 39.7764C45.6907 39.7887 45.5737 39.7826 45.463 39.7887C45.7768 39.7641 45.7768 39.8072 45.4937 39.7764C45.3891 39.7641 45.2783 39.7518 45.1737 39.7395C44.8045 39.6964 45.0999 39.7333 45.1245 39.7395C44.8783 39.6656 44.626 39.6103 44.386 39.5241C44.1029 39.4256 43.8198 39.3087 43.5491 39.1856C43.826 39.3149 43.506 39.161 43.4075 39.1056C43.2352 39.0133 43.0691 38.921 42.9029 38.8226C42.1029 38.361 41.0075 38.5272 40.2813 39.0626C39.6475 39.4933 39.1982 40.4349 39.9982 40.9026Z" fill="#E71E73"/>
<path d="M15.7581 22.293C16.1396 27.2716 16.7181 32.2378 17.5796 37.1548C17.7765 38.2687 17.8996 39.4872 18.2812 40.558C18.4904 41.1549 18.9704 41.1488 19.6104 41.0934C20.3858 41.0257 22.7059 40.6749 22.7243 39.561C21.2905 39.9426 19.8627 40.3303 18.4289 40.7118C18.5396 41.0441 18.6443 41.4011 18.8658 41.6841C19.4135 42.3734 20.7243 42.0042 21.4074 41.8195C22.1705 41.6165 23.192 41.2964 23.592 40.5334C23.7643 40.2072 23.8259 39.801 23.8936 39.4441C24.5151 36.2564 24.6013 32.9394 24.8167 29.7086C24.9582 27.6408 25.0936 25.5731 25.2475 23.5054C25.3275 22.49 25.4075 21.4746 25.5059 20.4592C25.5982 19.4438 25.5798 18.2561 26.0413 17.3268C26.0967 17.2222 26.4352 16.853 26.4167 16.7853C26.4167 16.7791 25.949 16.8899 25.8382 16.9576C25.6844 17.0499 25.8936 16.9453 25.9798 16.9453C26.1398 16.933 26.3059 16.9145 26.4659 16.9083C26.7552 16.896 27.0444 16.896 27.3336 16.896C28.6321 16.9145 29.9183 17.093 31.186 17.4007C32.4783 17.7207 33.7276 18.1822 34.9215 18.7853C35.9123 19.2838 37.1861 19.8807 37.7215 20.9146C39.1985 23.7515 35.8015 25.8316 33.7091 26.847C31.1122 28.1024 28.6998 28.7301 25.8259 28.9516C25.0321 29.0132 24.152 29.2593 23.4505 29.6409C23.2659 29.7393 22.4043 30.2009 22.8536 30.4901C28.4721 34.1517 34.1707 37.6718 40.0169 40.958C40.7554 41.3764 42.0477 40.9395 42.7739 40.6811C42.9708 40.6072 44.6939 39.8687 44.0724 39.5241C38.2261 36.2379 32.5276 32.7178 26.909 29.0562C25.9182 29.567 24.9274 30.084 23.9367 30.5947C27.1552 30.3486 30.3614 29.6409 33.383 28.5024C34.8599 27.9485 36.2876 27.2962 37.6723 26.5516C38.8538 25.9177 40.0662 25.1977 40.9831 24.2008C41.8385 23.2654 42.4539 22.0592 42.3124 20.7607C42.177 19.4745 41.18 18.6314 40.14 17.9976C37.7584 16.5576 35.0015 15.6529 32.2383 15.3575C29.2229 15.0314 25.5859 15.0806 22.9889 16.8406C21.032 18.1637 21.2535 21.013 21.0751 23.1238C20.7181 27.4008 20.5028 31.6963 20.1458 35.9733C20.0166 37.5118 19.9304 39.0995 19.5797 40.6011C19.5304 40.8164 19.4627 41.0195 19.395 41.2288C19.3704 41.3026 19.3212 41.3641 19.2966 41.4318L19.2658 41.4811C19.4074 41.3334 19.4443 41.2841 19.3827 41.3457C18.435 42.2442 19.6904 41.9549 23.1428 40.4841C23.1182 40.4164 23.0751 40.3918 23.1305 40.5087C23.0997 40.4411 23.0382 40.3795 23.0074 40.3057C22.8966 40.0657 22.8043 39.8195 22.7182 39.5672C22.5213 38.9456 20.7981 39.4256 20.4043 39.5303C19.8997 39.6657 18.435 40.0164 18.4227 40.718C18.4166 40.878 18.4719 40.6072 18.435 40.6626C18.595 40.5211 18.755 40.3857 18.915 40.2441L18.9089 40.2503C20.0474 39.9918 21.1797 39.7272 22.3182 39.4687C23.0566 39.641 22.6136 39.801 22.6136 39.5487C22.6136 39.4441 22.5397 39.2964 22.5151 39.198C22.4166 38.8226 22.3366 38.441 22.2566 38.0595C21.9797 36.7179 21.752 35.3702 21.5428 34.0163C20.872 29.7455 20.3797 25.45 20.0535 21.1423C20.0043 20.4469 15.6781 21.1853 15.7581 22.293Z" fill="#E71E73"/>
</svg>
